name analog
datacolumns 19
datarows 57
range 0.522 0.55
endheader
time	ground_force_vx	ground_force_vy	ground_force_vz	ground_force_px	ground_force_py	ground_force_pz	l_ground_force_vx	l_ground_force_vy	l_ground_force_vz	l_ground_force_px	l_ground_force_py	l_ground_force_pz	ground_torque_x	ground_torque_y	ground_torque_z	l_ground_torque_x	l_ground_torque_y	l_ground_torque_z
0.522	-0.0	-0.0	-0.0	2.452831029891968	35.83060836791992	-396.1812133789063	6.16524076461792	-38.19928741455078	-423.2593688964844	-0.0	-0.0	-0.0	-0.0	-0.0	-0.0	84340.328125	19761.80859375	-3846.651611328125
0.5225	-0.0	-0.0	-0.0	2.1626322269439697	35.29563903808594	-396.0027160644531	6.498110294342041	-38.24329376220703	-422.5616455078125	-0.0	-0.0	-0.0	-0.0	-0.0	-0.0	84375.453125	19663.24609375	-3861.41748046875
0.523	-0.0	-0.0	-0.0	2.54313588142395	34.872589111328125	-396.1783447265625	6.741941452026367	-38.22126770019531	-422.9967346191406	-0.0	-0.0	-0.0	-0.0	-0.0	-0.0	84044.546875	19153.578125	-3727.7373046875
0.5235	-0.0	-0.0	-0.0	2.206366539001465	34.80513381958008	-396.6187744140625	7.0967864990234375	-38.04458618164063	-421.948974609375	-0.0	-0.0	-0.0	-0.0	-0.0	-0.0	83967.8515625	19158.3515625	-3786.7685546875
0.524	-0.0	-0.0	-0.0	2.3180034160614014	34.894187927246094	-397.68353271484375	7.09709358215332	-38.066650390625	-421.3371276855469	-0.0	-0.0	-0.0	-0.0	-0.0	-0.0	84463.71875	19187.400390625	-3720.100341796875
0.5245	-0.0	-0.0	-0.0	2.341570854187012	34.939117431640625	-397.8588562011719	6.985737323760986	-37.86831665039063	-422.38525390625	-0.0	-0.0	-0.0	-0.0	-0.0	-0.0	84321.6484375	19006.828125	-3794.04638671875
0.525	-0.0	-0.0	-0.0	2.0969350337982178	35.249610900878906	-397.8629760742188	7.29634428024292	-38.02318954467773	-424.4833984375	-0.0	-0.0	-0.0	-0.0	-0.0	-0.0	84463.3828125	18951.255859375	-3667.89892578125
0.5255	-0.0	-0.0	-0.0	1.294118046760559	35.494773864746094	-395.4698791503906	7.363620281219482	-38.1330451965332	-424.04339599609375	-0.0	-0.0	-0.0	-0.0	-0.0	-0.0	84485.421875	18969.51171875	-3675.008056640625
0.526	-0.0	-0.0	-0.0	0.934884786605835	35.45192337036133	-395.7309265136719	6.874020576477051	-38.044036865234375	-423.7862854003906	-0.0	-0.0	-0.0	-0.0	-0.0	-0.0	84611.75	19292.734375	-3779.2265625
0.5265	-0.0	-0.0	-0.0	1.2928662300109863	36.32132339477539	-396.62109375	7.142515182495117	-38.15496826171875	-423.42767333984375	-0.0	-0.0	-0.0	-0.0	-0.0	-0.0	84702.296875	18958.06640625	-3920.2646484375
0.527	-0.0	-0.0	-0.0	1.0236293077468872	36.27302551269531	-396.0075378417969	6.7420196533203125	-38.13314056396485	-422.5597534179688	-0.0	-0.0	-0.0	-0.0	-0.0	-0.0	84550.78125	19037.076171875	-3928.2158203125
0.5275	-0.0	-0.0	-0.0	0.8953328728675842	36.3668212890625	-397.154052734375	6.410182952880859	-38.1353645324707	-424.9262390136719	-0.0	-0.0	-0.0	-0.0	-0.0	-0.0	84766.921875	19077.5	-3942.751708984375
0.528	-0.0	-0.0	-0.0	0.2894918620586395	36.70342254638672	-396.794189453125	5.789323329925537	-38.067901611328125	-424.4823303222656	-0.0	-0.0	-0.0	-0.0	-0.0	-0.0	84665.203125	19101.23046875	-3950.447998046875
0.5285	-0.0	-0.0	-0.0	-0.2676315307617187	36.60887145996094	-396.1814880371094	5.523306846618652	-37.69303894042969	-423.8645324707031	-0.0	-0.0	-0.0	-0.0	-0.0	-0.0	84544.59375	19259.953125	-4144.015625
0.529	-0.0	-0.0	-0.0	0.1348095089197158	36.81284332275391	-395.1220397949219	5.059467315673828	-37.84658050537109	-424.4767456054688	-0.0	-0.0	-0.0	-0.0	-0.0	-0.0	84883.625	19497.6484375	-4284.43505859375
0.5295	-0.0	-0.0	-0.0	-0.0196240842342376	36.38481140136719	-397.8699035644531	3.8581037521362314	-37.58007049560547	-426.3077087402344	-0.0	-0.0	-0.0	-0.0	-0.0	-0.0	85068.3046875	19590.90234375	-4307.5419921875
0.53	-0.0	-0.0	-0.0	0.1349648535251617	36.45433807373047	-396.4399108886719	3.638927459716797	-38.02337646484375	-426.9339294433594	-0.0	-0.0	-0.0	-0.0	-0.0	-0.0	85008.46875	19653.6796875	-4456.0791015625
0.5305	-0.0	-0.0	-0.0	-0.1494178473949432	36.28094482421875	-396.7928466796875	2.951075553894043	-38.08825302124024	-428.4944458007813	-0.0	-0.0	-0.0	-0.0	-0.0	-0.0	85442.8671875	19643.37109375	-4702.39208984375
0.531	-0.0	-0.0	-0.0	-0.2867603003978729	35.962852478027344	-397.5747375488281	2.903759479522705	-38.39836120605469	-429.2005920410156	-0.0	-0.0	-0.0	-0.0	-0.0	-0.0	85792.0625	19494.837890625	-4672.86572265625
0.5315	-0.0	-0.0	-0.0	-0.5136340260505676	35.8952522277832	-400.5916748046875	2.6569650173187256	-38.59874725341797	-429.7119140625	-0.0	-0.0	-0.0	-0.0	-0.0	-0.0	86148.09375	19669.974609375	-4725.2255859375
0.532	-0.0	-0.0	-0.0	-0.4733422994613647	35.90082931518555	-400.79632568359375	3.018500566482544	-38.52975463867188	-432.0613403320313	-0.0	-0.0	-0.0	-0.0	-0.0	-0.0	86343.8828125	19868.064453125	-4605.56591796875
0.5325	-0.0	-0.0	-0.0	-0.1999895572662353	35.64923095703125	-403.6846923828125	3.193588256835937	-38.77563095092773	-434.8540344238281	-0.0	-0.0	-0.0	-0.0	-0.0	-0.0	87121.296875	19774.7421875	-4664.83154296875
0.533	-0.0	-0.0	-0.0	-0.5598844885826111	35.67058563232422	-405.2678833007813	3.639716625213623	-39.01418685913086	-438.714111328125	-0.0	-0.0	-0.0	-0.0	-0.0	-0.0	87679.53125	19800.392578125	-4486.59130859375
0.5335	-0.0	-0.0	-0.0	-0.2311439365148544	36.25460433959961	-410.91845703125	4.459763526916504	-39.47707748413086	-442.8088684082031	-0.0	-0.0	-0.0	-0.0	-0.0	-0.0	88530.125	19903.16015625	-4352.18115234375
0.534	-0.0	-0.0	-0.0	0.2032240033149719	35.82709503173828	-414.4500732421875	4.787567138671875	-40.469913482666016	-447.1676330566406	-0.0	-0.0	-0.0	-0.0	-0.0	-0.0	89566.4453125	20116.47265625	-4352.185546875
0.5345	-0.0	-0.0	-0.0	0.95988529920578	36.1336669921875	-418.7589416503906	5.166660785675049	-41.4228744506836	-452.1396484375	-0.0	-0.0	-0.0	-0.0	-0.0	-0.0	90731.2265625	20283.33203125	-4278.46875
0.535	-0.0	-0.0	-0.0	0.7528225779533386	36.29744720458984	-424.0555725097656	5.585655212402344	-42.17205429077149	-455.5463562011719	-0.0	-0.0	-0.0	-0.0	-0.0	-0.0	91182.6015625	20845.072265625	-4308.02490234375
0.5355	-0.0	-0.0	-0.0	1.830669641494751	37.010475158691406	-429.0290222167969	5.7630133628845215	-42.5742301940918	-460.2409057617188	-0.0	-0.0	-0.0	-0.0	-0.0	-0.0	92549.125	21114.755859375	-4238.326171875
0.536	-0.0	-0.0	-0.0	1.6736630201339722	37.76997375488281	-435.2174682617188	5.787543296813965	-42.780216217041016	-466.020263671875	-0.0	-0.0	-0.0	-0.0	-0.0	-0.0	93636.875	21743.42578125	-4324.5439453125
0.5365	-0.0	-0.0	-0.0	2.030543804168701	38.24095916748047	-439.5928955078125	6.071444034576416	-43.75817489624024	-474.120361328125	-0.0	-0.0	-0.0	-0.0	-0.0	-0.0	94827.1015625	22282.4140625	-4388.78173828125
0.537	-0.0	-0.0	-0.0	2.434065341949463	38.81834030151367	-447.951904296875	6.344612121582031	-44.64126205444336	-481.1168518066406	-0.0	-0.0	-0.0	-0.0	-0.0	-0.0	96652.6953125	22925.166015625	-4395.90625
0.5375	-0.0	-0.0	-0.0	3.028896808624268	39.726688385009766	-457.0989074707031	6.298465728759766	-44.61988067626953	-489.4811401367188	-0.0	-0.0	-0.0	-0.0	-0.0	-0.0	98421.28125	23666.9453125	-4479.0205078125
0.538	-0.0	-0.0	-0.0	3.6196494102478023	40.34165573120117	-466.01220703125	6.433477401733398	-44.9807243347168	-496.9943542480469	-0.0	-0.0	-0.0	-0.0	-0.0	-0.0	99584.5	24316.138671875	-4553.83984375
0.5385	-0.0	-0.0	-0.0	3.963036060333252	41.60275650024414	-475.1108093261719	6.391205310821533	-46.08284378051758	-503.3774719238281	-0.0	-0.0	-0.0	-0.0	-0.0	-0.0	100888.40625	25085.474609375	-4657.3349609375
0.539	-0.0	-0.0	-0.0	4.1764116287231445	43.22359085083008	-482.9458923339844	6.230900287628174	-46.50342559814453	-511.2086791992188	-0.0	-0.0	-0.0	-0.0	-0.0	-0.0	102470.078125	25518.888671875	-4781.91015625
0.5395	-0.0	-0.0	-0.0	3.9626502990722656	45.27824401855469	-492.58343505859375	6.408283233642578	-47.580108642578125	-519.0885620117188	-0.0	-0.0	-0.0	-0.0	-0.0	-0.0	104003.2109375	25948.986328125	-4790.49609375
0.54	-0.0	-0.0	-0.0	4.507614135742188	47.06581878662109	-500.8532104492188	6.800784587860107	-48.33293914794922	-526.7694091796875	-0.0	-0.0	-0.0	-0.0	-0.0	-0.0	105518.25	26246.701171875	-4605.36572265625
0.5405	-0.0	-0.0	-0.0	4.261065006256104	48.55504989624024	-508.8489990234375	8.58389949798584	-49.70866012573242	-533.4681396484375	-0.0	-0.0	-0.0	-0.0	-0.0	-0.0	106935.015625	26674.279296875	-4450.6015625
0.541	-0.0	-0.0	-0.0	4.82778263092041	49.75054550170898	-515.82958984375	9.538748741149902	-50.91978454589844	-541.5158081054688	-0.0	-0.0	-0.0	-0.0	-0.0	-0.0	108378.25	26739.931640625	-4166.14013671875
0.5415	-0.0	-0.0	-0.0	4.8592915534973145	51.54854202270508	-521.5213623046875	11.43885898590088	-51.91227340698242	-548.8473510742188	-0.0	-0.0	-0.0	-0.0	-0.0	-0.0	109894.1796875	27199.0390625	-3951.983642578125
0.542	-0.0	-0.0	-0.0	4.633497714996338	53.09535598754883	-528.5843505859375	12.696754455566406	-53.25798034667969	-555.5439453125	-0.0	-0.0	-0.0	-0.0	-0.0	-0.0	111786.96875	27294.5859375	-3600.851318359375
0.5425	-0.0	-0.0	-0.0	4.633342266082764	54.37923049926758	-535.3986206054688	13.65638828277588	-54.42192840576172	-565.2764892578125	-0.0	-0.0	-0.0	-0.0	-0.0	-0.0	113260.1015625	27514.177734375	-3450.434814453125
0.543	-0.0	-0.0	-0.0	5.100102424621582	56.80266571044922	-542.2507934570312	14.501599311828612	-56.45833969116211	-573.0399169921875	-0.0	-0.0	-0.0	-0.0	-0.0	-0.0	114946.984375	27706.654296875	-3317.67236328125
0.5435	-0.0	-0.0	-0.0	5.230887413024902	57.661529541015625	-550.066162109375	15.60778522491455	-58.32854461669922	-579.5916748046875	-0.0	-0.0	-0.0	-0.0	-0.0	-0.0	116414.296875	28074.01953125	-3064.306396484375
0.544	-0.0	-0.0	-0.0	6.265538215637207	59.09025955200195	-554.0569458007812	16.145362854003906	-59.78289794921875	-586.1824951171875	-0.0	-0.0	-0.0	-0.0	-0.0	-0.0	117516.65625	28156.39453125	-3022.4755859375
0.5445	-0.0	-0.0	-0.0	6.813075542449951	60.68550491333008	-558.24658203125	16.322784423828125	-61.24269485473633	-594.8505249023438	-0.0	-0.0	-0.0	-0.0	-0.0	-0.0	118888.6875	28435.484375	-2938.806884765625
0.545	-0.0	-0.0	-0.0	7.34222936630249	62.00782012939453	-563.0263061523438	16.34354019165039	-63.212005615234375	-600.3773803710938	-0.0	-0.0	-0.0	-0.0	-0.0	-0.0	120341.484375	28924.44921875	-3089.492431640625
0.5455	-0.0	-0.0	-0.0	7.65297794342041	62.50110626220703	-565.7943115234375	15.899948120117188	-64.63084411621094	-606.534912109375	-0.0	-0.0	-0.0	-0.0	-0.0	-0.0	121480.5390625	29335.96484375	-3079.335205078125
0.546	-0.0	-0.0	-0.0	8.33791732788086	63.124977111816406	-567.2328491210938	15.06015396118164	-65.6582260131836	-611.5272827148438	-0.0	-0.0	-0.0	-0.0	-0.0	-0.0	122379.2109375	29533.162109375	-3337.258056640625
0.5465	-0.0	-0.0	-0.0	8.413093566894531	63.70762252807617	-568.6197509765625	14.903411865234377	-67.53333282470703	-614.2960815429688	-0.0	-0.0	-0.0	-0.0	-0.0	-0.0	123347.5234375	29963.43359375	-3388.254638671875
0.547	-0.0	-0.0	-0.0	8.605427742004395	63.63910675048828	-571.255126953125	14.309289932250977	-68.61974334716797	-618.5910034179688	-0.0	-0.0	-0.0	-0.0	-0.0	-0.0	124264.21875	30356.470703125	-3537.2734375
0.5475	-0.0	-0.0	-0.0	8.385787963867188	64.21499633789062	-571.8523559570312	13.941784858703612	-69.97126770019531	-622.7803955078125	-0.0	-0.0	-0.0	-0.0	-0.0	-0.0	125047.90625	30699.79296875	-3503.468505859375
0.548	-0.0	-0.0	-0.0	8.200284004211426	64.05716705322266	-574.0267944335938	13.647462844848633	-71.2412109375	-627.3445434570312	-0.0	-0.0	-0.0	-0.0	-0.0	-0.0	125379.6640625	30881.869140625	-3611.475830078125
0.5485	-0.0	-0.0	-0.0	8.2145357131958	64.255859375	-572.7766723632812	13.24505615234375	-71.96834564208984	-628.7412719726562	-0.0	-0.0	-0.0	-0.0	-0.0	-0.0	126177.6015625	31240.1953125	-3595.992431640625
0.549	-0.0	-0.0	-0.0	7.1368408203125	64.37992095947266	-571.3350830078125	11.83949851989746	-72.7974624633789	-629.4130859375	-0.0	-0.0	-0.0	-0.0	-0.0	-0.0	126157.890625	31471.3125	-3788.8330078125
0.5495	-0.0	-0.0	-0.0	6.43811559677124	64.2351303100586	-569.3260498046875	10.843158721923828	-73.38842010498047	-630.9974365234375	-0.0	-0.0	-0.0	-0.0	-0.0	-0.0	126592.9375	31940.16796875	-4056.590576171875
0.55	-0.0	-0.0	-0.0	5.742730140686035	64.26301574707031	-569.1943969726562	9.035100936889648	-74.27154541015625	-630.889404296875	-0.0	-0.0	-0.0	-0.0	-0.0	-0.0	126738.140625	32135.205078125	-4238.390625
